<?xml version="1.0" standalone="no"?>
<!DOCTYPE svg PUBLIC "-//W3C//DTD SVG 20010904//EN"
 "http://www.w3.org/TR/2001/REC-SVG-20010904/DTD/svg10.dtd">
<svg version="1.0" xmlns="http://www.w3.org/2000/svg"
 width="557.000000pt" height="314.000000pt" viewBox="0 0 557.000000 314.000000"
 preserveAspectRatio="xMidYMid meet">

<g transform="translate(0.000000,314.000000) scale(0.100000,-0.100000)"
fill="#000000" stroke="none">
<path d="M2565 2846 c-11 -6 -22 -12 -25 -14 -2 -2 2 -7 10 -12 8 -6 10 -10 4
-10 -7 0 -14 -11 -18 -23 -6 -27 -43 -77 -56 -77 -4 0 -11 20 -14 45 -6 39
-26 74 -26 46 0 -6 -7 -11 -16 -11 -10 0 -14 -6 -11 -14 3 -8 -1 -20 -9 -26
-8 -7 -14 -19 -14 -26 0 -8 -4 -14 -10 -14 -17 0 -11 22 12 41 11 11 17 19 11
19 -15 0 -47 -41 -69 -87 -10 -24 -22 -43 -26 -43 -12 0 -9 15 4 28 10 10 10
15 -2 22 -11 7 -16 5 -18 -8 -2 -9 -13 -27 -24 -39 -11 -11 -22 -40 -25 -63
-4 -29 -10 -40 -19 -36 -8 4 -20 9 -28 12 -17 7 -26 -25 -26 -98 0 -54 -2 -58
-22 -55 -18 2 -23 -3 -23 -22 0 -13 6 -26 13 -28 6 -3 12 3 12 13 0 14 3 15
12 6 9 -9 7 -17 -11 -36 -14 -15 -18 -26 -11 -29 6 -3 5 -4 -2 -3 -7 1 -14 15
-16 29 -4 34 -22 35 -22 2 0 -14 5 -25 10 -25 6 0 10 -11 10 -25 0 -19 4 -23
18 -19 14 5 14 4 2 -4 -12 -9 -11 -14 8 -30 15 -14 19 -21 10 -24 -8 -3 0 -19
22 -45 24 -29 37 -38 43 -30 5 7 5 1 1 -13 -3 -14 -8 -27 -10 -29 -6 -7 -34
21 -34 35 0 8 -7 14 -16 14 -14 0 -14 3 -4 15 10 12 10 15 -2 15 -8 0 -25 12
-39 26 l-24 27 29 -7 c26 -6 28 -5 17 8 -8 9 -24 16 -37 16 -21 0 -24 -5 -24
-41 0 -37 2 -40 23 -35 12 3 16 3 10 0 -15 -6 -18 -41 -4 -46 4 -1 12 -13 15
-25 6 -20 4 -23 -20 -23 -22 0 -25 -3 -16 -12 7 -7 12 -22 12 -34 0 -12 6 -24
14 -27 9 -4 12 0 9 13 -4 15 -1 18 15 13 12 -3 28 -14 38 -24 9 -10 23 -19 31
-19 7 0 13 -4 13 -9 0 -5 3 -16 6 -25 8 -22 -8 -20 -32 3 -11 10 -31 22 -44
26 -22 7 -23 6 -8 -9 9 -9 21 -16 27 -16 6 0 11 -4 11 -10 0 -5 -6 -10 -14
-10 -7 0 -19 -7 -26 -15 -11 -13 -8 -21 20 -50 20 -20 44 -35 57 -35 13 0 23
-4 23 -9 0 -5 8 -11 18 -14 15 -3 15 -5 -3 -12 -11 -5 -28 -17 -38 -27 -17
-17 -17 -18 8 -28 14 -5 25 -14 25 -20 0 -5 15 -10 34 -10 19 0 38 -4 41 -10
8 -12 45 -13 45 -1 0 5 11 4 24 -2 13 -7 22 -15 19 -20 -3 -4 -11 -3 -19 4
-17 14 -29 6 -21 -14 7 -19 62 -46 109 -53 41 -7 46 -15 23 -34 -27 -22 0 -33
82 -34 72 -1 82 2 127 31 37 25 52 30 62 22 8 -6 21 -8 30 -5 9 4 42 -6 73
-21 44 -22 70 -28 121 -28 36 0 73 3 84 8 18 7 18 8 1 27 -20 22 -17 25 49 34
21 3 49 15 62 27 23 22 22 49 -2 49 -8 0 -14 5 -14 10 0 6 6 10 14 10 8 0 17
7 20 16 6 14 18 16 86 11 47 -3 82 -1 86 5 8 13 -25 48 -47 48 -10 0 -21 5
-24 10 -3 6 -17 10 -31 10 -13 0 -24 3 -24 8 0 9 74 42 94 42 8 0 18 5 21 11
4 6 19 10 33 9 15 -1 33 -2 40 -1 18 1 15 28 -4 35 -10 4 -14 14 -11 25 4 17
2 18 -20 10 -32 -12 -33 -12 -33 10 0 12 13 25 35 35 19 9 37 21 40 26 3 6 10
10 16 10 16 0 10 -22 -13 -41 -11 -11 -17 -19 -11 -19 16 0 50 43 57 73 6 24
4 27 -18 27 -13 0 -27 6 -30 13 -5 10 -7 10 -12 0 -3 -7 -13 -13 -22 -13 -15
1 -15 2 -2 13 9 7 23 22 32 35 10 15 18 19 23 13 3 -6 1 -11 -4 -11 -6 0 -11
-7 -11 -15 0 -27 15 -16 33 25 22 51 23 110 2 110 -18 0 -21 60 -4 77 8 8 8
13 0 17 -6 4 -11 18 -11 30 0 26 -24 51 -39 42 -6 -4 -11 19 -13 60 -2 50 -7
70 -20 78 -24 15 -34 0 -15 -22 19 -21 24 -136 7 -147 -5 -3 -10 -15 -10 -26
0 -10 5 -19 10 -19 6 0 10 6 10 14 0 7 7 20 17 27 15 13 15 10 9 -26 -9 -49
-21 -64 -38 -46 -9 8 -12 45 -11 119 l1 107 -16 -37 c-17 -39 -32 -50 -32 -23
0 8 3 15 8 15 12 0 29 46 21 61 -4 8 -12 28 -19 44 -7 17 -16 37 -21 45 -5 8
-12 23 -15 33 -7 19 -20 22 -29 7 -9 -15 -25 -12 -25 5 0 31 -36 79 -52 69 -5
-3 -16 2 -25 12 -16 16 -16 16 7 9 21 -7 22 -6 9 6 -8 8 -25 20 -37 27 -20 11
-22 10 -22 -14 0 -22 -3 -24 -22 -19 -17 5 -19 4 -9 -3 15 -11 8 -42 -10 -42
-6 0 -9 7 -6 14 4 9 1 13 -6 10 -7 -2 -17 6 -22 18 -6 13 -17 22 -24 20 -7 -2
-21 3 -30 11 -26 22 -87 47 -115 47 -14 0 -26 5 -26 10 0 6 -9 10 -20 10 -41
0 -18 -20 30 -26 28 -4 50 -10 50 -15 0 -5 8 -9 18 -9 9 0 25 -12 35 -26 l19
-25 -34 6 c-25 5 -38 2 -47 -9 -14 -17 -41 -22 -41 -7 0 5 -11 12 -25 15 -14
4 -25 11 -25 16 0 13 17 13 22 -1 5 -15 70 -17 75 -1 3 6 -2 12 -9 12 -8 0
-23 8 -34 19 -12 10 -35 22 -52 26 -18 3 -32 11 -32 16 0 5 -20 9 -45 9 -25 0
-45 -4 -45 -10 0 -5 -9 -10 -21 -10 -23 0 -79 -30 -79 -42 0 -4 16 1 35 12 19
11 54 23 78 26 40 6 41 5 22 -10 -11 -8 -26 -16 -32 -16 -7 0 -13 -4 -13 -10
0 -5 -10 -10 -23 -10 -13 0 -28 -5 -35 -12 -16 -16 -50 16 -54 52 -3 24 -5 26
-23 16z m257 -34 c-19 -6 -14 -27 13 -50 14 -12 28 -22 31 -22 3 0 13 -8 22
-17 16 -16 16 -16 0 -11 -22 9 -43 -16 -26 -29 38 -27 77 -38 140 -38 64 0 68
-1 68 -22 0 -13 5 -23 10 -23 6 0 10 -6 10 -14 0 -7 7 -19 15 -26 10 -9 15 -9
15 -1 0 6 -4 11 -9 11 -14 0 -21 43 -9 57 16 20 48 16 48 -6 0 -13 8 -21 23
-23 13 -2 18 -6 11 -10 -7 -4 -23 1 -37 12 -27 22 -47 26 -47 10 0 -5 4 -10 9
-10 5 0 11 -9 14 -19 2 -11 24 -29 48 -40 l44 -20 -32 -1 c-20 0 -36 6 -42 18
-8 14 -12 15 -22 5 -16 -16 -634 -19 -643 -4 -4 5 -19 3 -36 -6 -17 -8 -36
-12 -43 -10 -7 3 -5 6 6 6 9 1 17 6 17 11 0 6 9 10 19 10 12 0 21 9 25 25 4
14 11 25 16 25 6 0 10 5 10 10 0 17 -26 11 -45 -10 -10 -11 -23 -20 -28 -20
-6 0 -21 -10 -33 -21 l-23 -21 6 21 c3 12 10 24 15 27 5 3 4 12 -3 20 -8 10
-8 14 0 14 6 0 11 7 11 17 0 22 32 93 42 93 4 0 8 -13 8 -30 0 -16 -4 -30 -10
-30 -5 0 -10 -6 -10 -14 0 -7 -7 -19 -15 -26 -8 -7 -15 -16 -15 -21 0 -16 27
-9 45 11 10 11 23 20 30 20 7 0 20 -9 30 -20 10 -11 14 -20 9 -20 -5 0 -14
-11 -21 -25 -6 -14 -9 -25 -6 -25 12 0 33 31 40 60 l9 33 77 2 c74 2 107 14
107 38 0 7 -4 7 -12 -1 -7 -7 -25 -12 -40 -12 -15 0 -28 -4 -28 -10 0 -5 -16
-10 -35 -10 -28 0 -35 4 -35 20 0 18 7 20 63 22 34 1 74 1 90 0 15 -1 27 1 27
5 0 12 -33 43 -47 43 -7 0 -13 5 -13 10 0 14 27 12 33 -2 4 -9 8 -10 14 -2 4
6 16 13 26 17 22 8 34 37 19 46 -7 4 5 7 25 7 20 0 31 -2 25 -4z m-92 -38 c0
-9 -5 -14 -12 -12 -18 6 -21 28 -4 28 9 0 16 -7 16 -16z m460 -104 c0 -10 4
-20 9 -22 5 -1 11 -14 14 -28 2 -14 2 -19 0 -12 -3 6 -13 12 -24 12 -13 0 -19
7 -19 23 0 13 -5 28 -11 34 -7 7 -9 23 -5 39 l7 27 15 -28 c8 -15 14 -35 14
-45z m27 48 c-3 -8 -6 -5 -6 6 -1 11 2 17 5 13 3 -3 4 -12 1 -19z m-607 2 c0
-5 -4 -10 -10 -10 -5 0 -10 5 -10 10 0 6 5 10 10 10 6 0 10 -4 10 -10z m-240
-36 c0 -8 -4 -12 -10 -9 -5 3 -10 10 -10 16 0 5 5 9 10 9 6 0 10 -7 10 -16z
m870 6 c0 -5 -4 -10 -10 -10 -5 0 -10 5 -10 10 0 6 5 10 10 10 6 0 10 -4 10
-10z m-217 -12 c40 -19 33 -28 -23 -28 -27 0 -50 5 -50 10 0 6 -11 10 -25 10
-14 0 -25 5 -25 10 0 14 91 12 123 -2z m-733 -113 c0 -57 2 -64 17 -58 15 6
16 5 3 -9 -8 -9 -16 -12 -18 -7 -2 5 -12 9 -23 9 -16 0 -19 7 -19 43 0 45 19
99 32 91 5 -3 8 -34 8 -69z m1027 43 c-3 -8 -6 -5 -6 6 -1 11 2 17 5 13 3 -3
4 -12 1 -19z m-977 -22 c0 -33 -11 -39 -25 -13 -7 15 -8 26 0 33 14 16 25 7
25 -20z m927 -18 c-2 -13 -4 -5 -4 17 -1 22 1 32 4 23 2 -10 2 -28 0 -40z
m-43 -10 c16 -19 17 -20 1 -15 -9 4 -21 7 -26 7 -5 0 -9 7 -9 15 0 21 12 19
34 -7z m116 -17 c0 -32 -4 -40 -22 -45 -13 -3 -27 -1 -33 5 -7 7 -4 8 8 4 16
-7 22 9 20 63 -1 6 5 12 13 12 10 0 14 -12 14 -39z m-1140 -61 c0 -27 5 -50
10 -50 6 0 10 -18 10 -40 0 -46 -10 -51 -27 -13 -15 32 -17 153 -3 153 6 0 10
-22 10 -50z m680 -75 l5 -110 108 -3 107 -3 0 -99 0 -100 -100 0 -100 0 0
-109 c0 -63 -4 -112 -10 -116 -5 -3 -10 -17 -10 -31 0 -13 -5 -24 -11 -24 -6
0 -27 -15 -46 -34 l-36 -34 -31 32 c-17 18 -39 35 -48 39 -16 6 -18 22 -18
142 l0 135 -110 0 -110 0 0 100 0 100 110 0 110 0 0 99 c0 55 3 107 6 116 5
13 21 15 93 13 l86 -3 5 -110z m-636 83 c9 -34 8 -38 -10 -38 -14 0 -14 3 -4
15 9 10 9 15 1 15 -6 0 -11 7 -11 15 0 23 17 18 24 -7z m214 -315 c-3 -301 -5
-338 -19 -341 -12 -2 -17 8 -22 45 -6 50 -26 103 -39 103 -5 0 -8 -7 -8 -15 0
-8 5 -15 10 -15 6 0 10 -11 10 -25 0 -14 5 -25 10 -25 6 0 10 -13 10 -29 0
-17 -4 -33 -10 -36 -5 -3 -10 1 -10 10 0 11 -5 15 -14 12 -10 -4 -12 0 -9 14
3 10 0 25 -6 33 -7 8 -13 39 -14 71 -3 63 -15 76 -64 70 -31 -4 -33 -2 -33 25
0 24 4 30 23 30 17 0 19 -2 8 -9 -12 -8 -13 -12 -2 -25 10 -12 17 -13 26 -6 9
8 14 7 18 -2 8 -22 26 38 23 74 -2 18 -1 23 1 11 7 -38 23 -26 23 16 0 40 -14
62 -23 39 -3 -7 -3 5 0 27 3 22 13 49 23 60 10 11 20 36 23 57 4 30 2 37 -14
41 -24 6 -59 -2 -59 -14 0 -5 4 -9 9 -9 12 0 -11 -49 -24 -51 -43 -6 -65 -3
-65 8 0 7 8 14 18 15 9 0 22 2 27 3 6 2 16 3 23 4 17 1 15 21 -3 21 -8 0 -15
4 -15 8 0 11 54 62 66 62 11 1 54 36 54 44 0 3 -11 6 -25 6 -14 0 -25 5 -25
10 0 16 36 12 51 -6 11 -14 11 -18 -4 -29 -9 -7 -17 -19 -17 -28 0 -8 -5 -18
-10 -20 -6 -3 -5 -4 2 -3 7 1 18 13 24 25 7 13 17 28 23 34 6 6 11 19 11 29 0
10 5 18 10 18 7 0 9 -114 8 -337z m702 297 c5 0 15 7 24 15 17 17 36 20 36 5
0 -5 8 -10 18 -10 9 0 28 -9 42 -19 23 -19 24 -20 7 -39 -21 -23 -22 -42 -2
-42 8 0 15 -4 15 -10 0 -13 -6 -13 -33 3 -40 22 -57 40 -57 59 0 10 -4 18 -10
18 -15 0 -12 -26 5 -40 8 -7 15 -16 15 -21 0 -5 -7 -9 -15 -9 -17 0 -20 -25
-5 -35 6 -3 10 -17 10 -31 0 -14 7 -27 15 -30 17 -7 22 -94 5 -94 -5 0 -10
-13 -10 -29 0 -17 5 -33 10 -36 6 -3 10 -17 10 -31 0 -27 20 -34 21 -6 0 13 2
14 6 2 3 -8 11 -19 17 -23 7 -6 4 -7 -6 -3 -13 4 -18 0 -18 -15 0 -11 -11 -31
-25 -45 -14 -14 -25 -31 -25 -39 0 -8 -4 -15 -10 -15 -5 0 -10 -11 -10 -24 0
-14 -4 -28 -10 -31 -5 -3 -10 -19 -10 -36 0 -16 5 -29 10 -29 6 0 10 15 10 34
0 19 4 37 9 40 5 3 12 21 15 40 7 38 30 64 41 46 3 -5 -3 -23 -15 -39 -12 -18
-16 -32 -10 -36 6 -4 5 -13 -2 -25 -7 -11 -9 -23 -5 -27 5 -4 12 -2 16 5 6 10
10 10 19 0 9 -11 6 -14 -16 -13 -15 0 -33 -7 -40 -17 -10 -13 -20 -16 -39 -12
-20 6 -25 4 -21 -7 4 -11 -2 -14 -28 -11 -22 3 -39 -2 -49 -12 -10 -9 -33 -16
-56 -16 -34 0 -39 -3 -35 -17 7 -24 -31 -70 -46 -55 -14 14 -2 32 23 32 10 0
19 5 19 10 0 25 -33 4 -94 -60 -71 -76 -100 -87 -116 -44 -7 19 -15 24 -29 19
-13 -4 -34 8 -72 45 -32 29 -47 50 -39 50 9 0 21 -5 27 -11 6 -6 22 -17 35
-23 12 -6 24 -22 26 -34 3 -23 22 -31 22 -10 0 14 -40 58 -53 58 -5 0 -17 8
-26 19 -9 10 -37 21 -66 25 -27 5 -55 12 -62 18 -7 5 -22 6 -35 3 -20 -7 -21
-6 -6 9 18 18 103 23 113 6 3 -5 24 -10 46 -10 46 0 95 -23 122 -56 19 -25 47
-32 47 -13 0 25 69 69 110 69 16 0 30 5 30 10 0 6 34 10 83 10 51 0 88 5 95
12 15 15 17 234 2 243 -6 3 -10 50 -10 105 0 55 4 102 10 105 6 3 11 54 11
113 1 59 4 97 6 85 2 -13 8 -23 13 -23z m-810 6 c0 -11 -19 -15 -25 -6 -3 5 1
10 9 10 9 0 16 -2 16 -4z m-30 -43 c0 -25 -1 -26 -16 -11 -9 9 -13 21 -10 27
13 20 26 11 26 -16z m917 -85 c2 6 9 12 14 12 5 0 4 -8 -2 -19 -10 -15 -7 -25
17 -57 16 -22 34 -45 41 -52 7 -7 10 -19 7 -26 -3 -8 3 -16 15 -19 22 -5 38
-33 26 -45 -4 -4 -18 6 -31 22 -14 15 -27 26 -30 24 -2 -3 2 -11 11 -18 8 -7
15 -23 15 -37 0 -21 3 -23 23 -18 18 6 20 5 10 -6 -7 -7 -13 -26 -13 -42 0
-18 -4 -27 -12 -24 -7 2 -13 13 -13 24 0 11 -5 26 -10 34 -6 8 -17 26 -25 42
-12 25 -11 29 8 50 l22 24 -25 11 c-14 6 -25 18 -25 26 0 8 -8 21 -18 28 -10
7 -22 29 -25 48 -5 26 -4 31 4 20 8 -11 12 -12 16 -2z m-1037 -43 c0 -7 -7
-15 -15 -18 -10 -5 -14 1 -12 23 1 21 5 26 15 18 6 -6 12 -16 12 -23z m170 15
c0 -22 -7 -33 -52 -81 -23 -25 -25 -31 -12 -43 25 -26 7 -89 -23 -79 -18 6
-16 40 2 47 8 3 15 10 15 16 0 6 -7 4 -16 -4 -20 -20 -45 -21 -38 -1 4 8 15
15 25 15 10 0 19 5 19 10 0 6 -5 10 -11 10 -6 0 -3 7 5 16 9 8 16 21 16 28 0
8 7 20 16 27 9 7 20 23 25 36 11 29 29 30 29 3z m934 1 c10 -11 16 -26 13 -33
-4 -8 -6 -7 -6 5 -1 9 -7 17 -15 17 -7 0 -19 7 -26 15 -20 24 13 19 34 -4z
m176 5 c0 -8 -6 -16 -13 -19 -8 -3 -13 3 -13 14 0 11 6 19 13 19 7 0 13 -6 13
-14z m-125 -24 c-3 -3 -11 0 -18 7 -9 10 -8 11 6 5 10 -3 15 -9 12 -12z
m-1137 -49 c2 -11 -3 -25 -10 -30 -10 -9 -13 -4 -14 23 -1 37 19 43 24 7z
m1187 17 c3 -5 -1 -10 -10 -10 -9 0 -13 5 -10 10 3 6 8 10 10 10 2 0 7 -4 10
-10z m38 -31 c-13 -14 -23 -17 -27 -10 -4 6 0 11 9 11 11 0 15 5 12 14 -7 19
4 29 17 16 7 -7 4 -17 -11 -31z m41 -34 c-4 -8 -14 -15 -24 -15 -11 0 -20 -10
-24 -25 -4 -14 -11 -25 -16 -25 -6 0 -10 -6 -10 -13 0 -8 -11 -24 -25 -37 -14
-13 -25 -18 -25 -12 0 7 5 12 10 12 6 0 10 4 10 9 0 5 5 22 12 38 6 15 12 35
12 43 1 8 9 15 18 15 10 0 23 6 30 13 17 17 39 15 32 -3z m-224 -54 c0 -11 -4
-23 -10 -26 -6 -4 -10 5 -10 19 0 14 5 26 10 26 6 0 10 -9 10 -19z m-1107 -31
c20 0 20 -1 4 -17 -19 -20 -24 -17 -30 17 -2 14 -2 19 0 13 3 -7 14 -13 26
-13z m24 -76 c-3 -3 -12 -4 -19 -1 -8 3 -5 6 6 6 11 1 17 -2 13 -5z m1260 0
c-3 -3 -12 -4 -19 -1 -8 3 -5 6 6 6 11 1 17 -2 13 -5z m-1210 -34 c3 -10 2
-11 -4 -4 -4 6 -15 14 -23 17 -11 5 -9 6 4 4 11 -1 21 -9 23 -17z m1173 5
c-14 -16 -40 -20 -40 -6 0 10 17 19 39 20 11 1 11 -2 1 -14z m-1070 -74 c0
-12 -20 -25 -27 -18 -7 7 6 27 18 27 5 0 9 -4 9 -9z m956 -18 c-10 -10 -19 5
-10 18 6 11 8 11 12 0 2 -7 1 -15 -2 -18z m-1023 -20 c-7 -2 -21 -2 -30 0 -10
3 -4 5 12 5 17 0 24 -2 18 -5z m1095 0 c-10 -2 -18 -8 -18 -13 0 -4 -13 -10
-30 -12 -23 -3 -27 -2 -19 8 10 12 38 21 69 21 9 1 9 -1 -2 -4z m77 -4 c11
-16 1 -19 -13 -3 -7 8 -8 14 -3 14 5 0 13 -5 16 -11z m-1235 -7 c0 -10 75 -42
99 -42 11 0 27 7 35 16 9 8 16 12 16 7 0 -31 -99 -60 -115 -33 -3 6 -16 10
-28 10 -23 0 -60 33 -50 44 9 9 43 7 43 -2z m115 -15 c6 -5 3 -7 -6 -4 -9 3
-22 0 -28 -6 -15 -15 -14 1 2 17 6 8 14 11 17 8 3 -4 10 -11 15 -15z m145 -92
c13 -14 30 -25 37 -25 8 0 11 -4 8 -10 -10 -17 -37 -11 -62 12 -23 21 -31 48
-15 48 5 0 19 -11 32 -25z m-110 -11 c0 -12 -3 -14 -12 -6 -7 6 -26 12 -43 15
-24 3 -22 4 13 6 33 1 42 -3 42 -15z m167 10 c-3 -3 -12 -4 -19 -1 -8 3 -5 6
6 6 11 1 17 -2 13 -5z m571 -1 c-10 -2 -18 -11 -18 -19 0 -8 -4 -14 -10 -14
-14 0 -12 27 3 33 6 3 19 5 27 5 10 0 9 -2 -2 -5z m127 -4 c11 -16 1 -19 -13
-3 -7 8 -8 14 -3 14 5 0 13 -5 16 -11z m101 -7 c1 -7 0 -8 -3 -2 -3 8 -9 8
-18 0 -10 -8 -15 -8 -20 0 -5 8 -11 8 -21 -1 -11 -9 -14 -8 -14 5 0 14 8 17
37 14 20 -2 38 -9 39 -16z m-766 -1 c0 -12 -20 -25 -27 -18 -7 7 6 27 18 27 5
0 9 -4 9 -9z m590 -16 c-14 -17 -30 -20 -30 -5 0 6 7 10 15 10 8 0 15 5 15 12
0 6 3 8 6 5 4 -4 1 -13 -6 -22z m-835 -5 c3 -5 24 -10 47 -10 35 0 39 -2 28
-15 -14 -17 -51 -20 -65 -6 -6 5 -23 11 -39 13 -41 4 -47 28 -7 28 16 0 33 -4
36 -10z m230 -30 c3 -5 -1 -10 -10 -10 -9 0 -13 5 -10 10 3 6 8 10 10 10 2 0
7 -4 10 -10z m545 1 c0 -5 -9 -11 -21 -14 -16 -4 -18 -3 -8 9 13 16 29 19 29
5z m-581 -29 c13 -13 12 -14 -9 -7 -13 4 -31 14 -39 23 -13 13 -12 14 9 7 13
-4 31 -14 39 -23z m131 -3 c0 -5 -4 -9 -10 -9 -5 0 -10 7 -10 16 0 8 5 12 10
9 6 -3 10 -10 10 -16z m290 7 c0 -18 -17 -29 -30 -21 -8 5 -7 11 1 21 15 18
29 18 29 0z m33 -33 c-13 -2 -23 -9 -23 -14 0 -5 -7 -9 -15 -9 -8 0 -15 4 -15
9 0 11 25 19 55 18 16 0 16 -1 -2 -4z m-408 -17 c8 -7 11 -16 8 -20 -10 -10
-83 -7 -83 4 0 6 -12 10 -26 10 -14 0 -23 4 -19 10 9 15 104 12 120 -4z m560
4 c7 11 68 14 78 3 4 -3 -5 -12 -19 -20 -30 -15 -124 -18 -124 -3 0 6 7 10 15
10 8 0 15 5 15 11 0 8 4 8 14 0 10 -8 16 -9 21 -1z m-88 -36 c-3 -3 -12 -4
-19 -1 -8 3 -5 6 6 6 11 1 17 -2 13 -5z m-327 -29 c0 -9 -9 -15 -25 -15 -14 0
-25 -4 -25 -10 0 -5 -18 -10 -40 -10 -33 0 -40 3 -40 20 0 16 8 20 63 23 34 2
63 4 65 5 1 1 2 -5 2 -13z m316 -6 c59 -15 56 -29 -6 -29 -27 0 -50 5 -50 10
0 6 -11 10 -25 10 -14 0 -25 5 -25 10 0 13 50 13 106 -1z"/>
<path d="M2270 2320 c0 -5 5 -10 10 -10 6 0 10 5 10 10 0 6 -4 10 -10 10 -5 0
-10 -4 -10 -10z"/>
<path d="M3183 2473 c-7 -2 -13 -9 -13 -15 0 -6 7 -7 16 -4 9 3 27 -3 41 -14
31 -24 43 -25 43 -5 0 8 -6 15 -14 15 -7 0 -19 7 -26 15 -13 15 -25 17 -47 8z"/>
<path d="M3410 2179 c0 -5 5 -7 10 -4 6 3 10 8 10 11 0 2 -4 4 -10 4 -5 0 -10
-5 -10 -11z"/>
<path d="M3000 2837 c0 -37 35 -63 42 -31 3 13 6 13 27 -5 35 -31 39 -25 6 9
-16 17 -35 30 -42 30 -7 0 -13 5 -13 10 0 6 -4 10 -10 10 -5 0 -10 -10 -10
-23z"/>
<path d="M2499 2792 c-20 -23 -23 -31 -13 -40 17 -16 32 -16 16 0 -9 9 -6 18
15 40 15 15 23 28 17 28 -5 0 -21 -13 -35 -28z"/>
<path d="M3395 1853 c-11 -3 -24 -9 -29 -14 -6 -5 -20 -9 -33 -9 -13 0 -23 -4
-23 -10 0 -5 9 -10 19 -10 11 0 23 5 26 10 3 6 15 10 26 10 11 0 27 7 35 15
16 15 14 16 -21 8z"/>
<path d="M3295 1720 c-3 -5 -24 -10 -46 -10 -21 0 -39 -4 -39 -10 0 -5 15 -10
34 -10 19 0 38 5 41 10 3 6 17 10 31 10 13 0 24 5 24 10 0 6 -9 10 -19 10 -11
0 -23 -4 -26 -10z"/>
<path d="M470 1061 c0 -6 25 -51 55 -99 53 -86 55 -91 55 -160 l0 -72 35 0 35
0 0 72 c0 69 2 74 55 160 30 48 55 93 55 99 0 6 -14 9 -32 7 -28 -3 -38 -12
-70 -68 -21 -36 -41 -64 -44 -63 -3 1 -23 30 -43 65 -31 54 -41 63 -69 66 -18
2 -32 -1 -32 -7z"/>
<path d="M817 1064 c-4 -4 -7 -81 -7 -171 l0 -163 30 0 30 0 0 140 0 140 70 0
70 0 0 -140 0 -140 35 0 35 0 -2 168 -3 167 -126 3 c-69 1 -128 -1 -132 -4z"/>
<path d="M1147 1064 c-4 -4 -7 -81 -7 -171 l0 -163 125 0 125 0 0 30 0 30 -90
0 -90 0 0 45 0 45 80 0 c79 0 80 0 80 25 0 25 -1 25 -80 25 l-80 0 0 40 0 40
91 0 90 0 -3 28 -3 27 -116 3 c-63 1 -118 -1 -122 -4z"/>
<path d="M1430 1061 c0 -6 25 -51 55 -99 53 -86 55 -91 55 -160 l0 -72 35 0
35 0 0 72 c0 69 2 74 55 160 30 48 55 93 55 99 0 6 -14 9 -32 7 -28 -3 -38
-12 -70 -68 -21 -36 -41 -64 -44 -63 -3 1 -23 30 -43 65 -31 54 -41 63 -69 66
-18 2 -32 -1 -32 -7z"/>
<path d="M1844 1056 c-111 -50 -124 -244 -21 -306 39 -24 135 -27 177 -5 47
24 74 79 74 150 0 69 -20 114 -66 148 -34 26 -121 33 -164 13z m141 -78 c24
-29 27 -38 23 -90 -6 -77 -30 -103 -94 -103 -64 0 -94 35 -94 110 0 43 5 59
26 84 21 26 33 31 69 31 36 0 48 -5 70 -32z"/>
<path d="M1860 900 c0 -30 1 -30 55 -30 54 0 55 0 55 30 0 30 -1 30 -55 30
-54 0 -55 0 -55 -30z"/>
<path d="M2107 1063 c-3 -5 22 -48 54 -98 57 -88 58 -91 58 -162 l1 -73 30 0
30 0 0 66 c0 64 2 71 60 164 33 53 60 100 60 104 0 3 -13 6 -28 6 -32 0 -46
-14 -86 -82 -15 -27 -30 -48 -34 -48 -4 0 -25 29 -45 65 -33 57 -41 65 -67 65
-16 0 -31 -3 -33 -7z"/>
<path d="M2452 1058 c-8 -8 -12 -57 -12 -170 l0 -158 35 0 35 0 0 101 c0 55 4
98 8 95 5 -3 35 -48 66 -101 55 -90 60 -95 92 -95 l34 0 0 171 0 170 -27 -3
-28 -3 -3 -102 c-1 -57 -6 -103 -10 -103 -4 1 -35 47 -68 103 -47 79 -67 103
-85 105 -13 2 -30 -3 -37 -10z"/>
<path d="M2787 1063 c-4 -3 -7 -80 -7 -170 l0 -163 30 0 29 0 3 73 3 72 68 3
67 3 0 -76 0 -75 35 0 35 0 -2 168 -3 167 -30 0 -30 0 -3 -68 -3 -68 -67 3
-67 3 -3 68 c-3 62 -5 67 -26 67 -12 0 -26 -3 -29 -7z"/>
<path d="M3343 1058 c-4 -7 -36 -82 -70 -168 l-61 -155 160 -3 c89 -1 163 0
166 2 2 3 -25 78 -61 168 -62 157 -66 163 -95 166 -17 2 -34 -3 -39 -10z m74
-175 c18 -47 32 -88 29 -90 -2 -2 -35 -3 -73 -1 l-70 3 35 93 c19 51 37 90 40
87 3 -3 21 -44 39 -92z"/>
<path d="M3587 1064 c-4 -4 -7 -81 -7 -171 l0 -163 35 0 35 0 0 75 0 76 68 -3
67 -3 3 -72 3 -73 30 0 29 0 -2 168 -3 167 -25 0 c-24 0 -25 -4 -30 -65 l-5
-65 -67 -3 -67 -3 -3 68 c-3 64 -4 68 -28 71 -14 2 -29 0 -33 -4z"/>
<path d="M4014 1063 c-5 -5 -38 -81 -71 -171 l-61 -163 35 3 35 3 40 113 c23
62 44 110 48 105 4 -4 25 -56 45 -115 l38 -108 34 0 c28 0 33 3 28 18 -110
319 -109 317 -135 320 -14 1 -30 -1 -36 -5z"/>
<path d="M4295 1050 c-82 -42 -106 -126 -62 -212 24 -47 24 -47 3 -50 -15 -2
-22 -12 -24 -30 l-3 -28 75 0 c72 0 76 1 76 23 0 13 -14 33 -35 50 -87 69 -52
207 53 207 44 0 68 -14 87 -50 30 -57 8 -142 -44 -170 -13 -6 -21 -21 -21 -35
0 -24 2 -25 76 -25 l75 0 -3 28 c-2 19 -9 28 -25 30 -28 4 -28 3 -1 48 42 72
25 156 -44 207 -39 29 -133 33 -183 7z"/>
<path d="M4597 1064 c-18 -18 -4 -61 33 -105 22 -26 40 -51 40 -54 0 -4 -18
-30 -40 -57 -29 -37 -40 -60 -40 -84 l0 -34 121 0 120 0 -3 28 c-3 26 -5 27
-80 32 l-78 5 44 55 44 55 -39 46 c-21 26 -39 50 -39 53 0 3 32 6 71 6 l70 0
-3 28 -3 27 -106 3 c-58 1 -108 -1 -112 -4z"/>
<path d="M4887 1064 c-4 -4 -7 -81 -7 -171 l0 -163 35 0 35 0 0 75 0 76 68 -3
67 -3 3 -72 3 -73 30 0 29 0 -2 168 -3 167 -25 0 c-24 0 -25 -4 -30 -65 l-5
-65 -67 -3 -67 -3 -3 68 c-3 64 -4 68 -28 71 -14 2 -29 0 -33 -4z"/>
<path d="M1600 625 c-7 -9 -10 -18 -7 -22 8 -7 37 15 37 28 0 14 -16 11 -30
-6z"/>
<path d="M1448 584 c-22 -51 -21 -109 3 -159 18 -37 45 -48 33 -14 -11 31 -11
156 0 192 14 46 -13 32 -36 -19z"/>
<path d="M1866 608 c-10 -13 -16 -43 -16 -73 0 -63 20 -95 60 -95 40 0 60 32
60 95 0 30 -6 60 -16 73 -20 30 -68 30 -88 0z m64 -33 c0 -18 -5 -25 -18 -25
-25 0 -31 7 -25 31 8 29 43 25 43 -6z m0 -80 c0 -18 -5 -25 -20 -25 -11 0 -20
4 -20 9 0 5 -3 16 -6 25 -5 12 0 16 20 16 21 0 26 -5 26 -25z"/>
<path d="M2418 619 c-19 -11 -25 -54 -9 -63 5 -4 3 -19 -6 -36 -13 -28 -13
-33 1 -55 20 -31 74 -34 99 -7 21 23 21 41 2 69 -10 14 -12 24 -5 28 14 9 13
48 -2 63 -15 15 -57 15 -80 1z m57 -39 c0 -8 -8 -16 -17 -18 -13 -2 -18 3 -18
18 0 15 5 20 18 18 9 -2 17 -10 17 -18z m5 -85 c0 -26 -22 -39 -39 -22 -22 22
-2 61 25 50 8 -3 14 -15 14 -28z"/>
<path d="M2630 535 c0 -78 3 -95 15 -95 12 0 15 13 15 56 0 64 8 63 47 -6 21
-37 34 -50 51 -50 21 0 22 3 22 95 0 88 -2 95 -20 95 -16 0 -19 -8 -22 -57
l-3 -58 -35 58 c-21 35 -42 57 -52 57 -16 0 -18 -11 -18 -95z"/>
<path d="M2928 605 c-16 -13 -28 -31 -28 -40 0 -18 12 -19 28 -3 9 9 12 -3 12
-55 0 -60 2 -67 20 -67 19 0 20 7 20 95 0 105 -5 112 -52 70z"/>
<path d="M3057 613 c-3 -10 -8 -35 -12 -56 l-6 -39 39 7 c31 5 41 3 45 -9 15
-39 -15 -58 -53 -34 -24 15 -38 3 -24 -20 15 -23 77 -28 98 -7 36 36 10 105
-39 105 -18 0 -23 4 -19 15 4 8 18 15 33 15 33 0 42 7 34 26 -8 22 -90 19 -96
-3z"/>
<path d="M3206 614 c-40 -39 -4 -124 45 -109 13 5 19 1 19 -10 0 -21 -27 -30
-46 -15 -11 10 -18 10 -26 2 -18 -18 10 -42 48 -42 27 0 36 6 49 30 46 89 -27
207 -89 144z m62 -47 c3 -21 -1 -27 -17 -27 -25 0 -34 14 -26 41 10 29 39 20
43 -14z"/>
<path d="M3350 610 c-20 -20 -26 -56 -12 -76 12 -19 50 -34 66 -28 11 4 16 1
16 -10 0 -22 -27 -31 -46 -16 -11 10 -18 10 -26 2 -17 -17 9 -42 42 -42 42 0
63 31 63 95 0 86 -53 125 -103 75z m60 -25 c16 -20 5 -45 -20 -45 -14 0 -20 7
-20 23 0 38 18 48 40 22z"/>
<path d="M3516 622 c-5 -8 -46 -165 -46 -176 0 -3 6 -6 14 -6 9 0 21 30 35 85
11 46 21 89 21 95 0 12 -17 14 -24 2z"/>
<path d="M3588 600 c-40 -40 -38 -61 3 -40 18 10 19 7 19 -55 0 -58 2 -65 20
-65 19 0 20 7 20 95 0 84 -2 95 -17 94 -10 -1 -30 -14 -45 -29z"/>
<path d="M3726 614 c-40 -39 -4 -124 45 -109 13 5 19 1 19 -10 0 -21 -27 -30
-46 -15 -11 10 -18 10 -26 2 -18 -18 10 -42 48 -42 27 0 36 6 49 30 46 89 -27
207 -89 144z m62 -47 c3 -21 -1 -27 -17 -27 -25 0 -34 14 -26 41 10 29 39 20
43 -14z"/>
<path d="M3872 618 c-15 -15 -16 -68 -1 -68 5 0 3 -10 -5 -22 -21 -29 -20 -51
2 -71 53 -48 129 4 97 67 -8 15 -10 28 -4 31 16 11 10 54 -10 65 -26 14 -64
13 -79 -2z m58 -38 c0 -21 -24 -28 -35 -10 -8 14 3 30 21 30 8 0 14 -9 14 -20z
m10 -84 c0 -18 -21 -35 -36 -29 -17 6 -18 50 -1 56 15 5 37 -11 37 -27z"/>
<path d="M4025 610 c-23 -25 -30 -107 -13 -140 11 -20 21 -25 53 -25 33 0 42
4 53 28 20 40 -2 81 -46 85 -20 2 -32 9 -32 18 0 18 32 32 38 16 4 -14 42 -16
42 -3 0 18 -31 41 -54 41 -13 0 -31 -9 -41 -20z m60 -110 c0 -16 -6 -26 -18
-28 -19 -4 -32 20 -23 44 9 25 41 13 41 -16z"/>
<path d="M4154 613 c19 -49 25 -105 16 -153 -5 -28 -12 -56 -15 -61 -4 -5 0
-9 8 -9 20 0 47 70 47 120 0 50 -27 120 -47 120 -10 0 -13 -6 -9 -17z"/>
<path d="M1536 558 c-20 -28 -20 -67 -1 -95 13 -19 25 -22 68 -21 l52 1 1 69
c0 50 -3 68 -13 68 -7 0 -13 -5 -13 -12 0 -9 -3 -9 -12 0 -20 20 -65 14 -82
-10z m74 -15 c0 -5 3 -17 6 -29 8 -29 -22 -59 -42 -43 -14 12 -19 60 -7 72 9
9 43 9 43 0z"/>
<path d="M1707 562 c-23 -26 -25 -172 -2 -172 9 0 15 9 15 25 0 22 4 25 39 25
66 0 92 60 50 114 -25 32 -77 36 -102 8z m81 -49 c2 -23 -2 -34 -15 -42 -33
-17 -57 16 -42 57 14 37 53 26 57 -15z"/>
<path d="M2022 572 c-18 -12 -32 -68 -32 -129 0 -46 3 -53 20 -53 15 0 20 7
20 25 0 22 4 25 33 25 20 0 41 8 50 18 23 25 22 85 -1 105 -20 18 -68 22 -90
9z m72 -38 c16 -42 -12 -81 -45 -64 -34 19 -22 80 16 80 13 0 26 -7 29 -16z"/>
<path d="M2178 563 c-23 -28 -28 -51 -17 -80 13 -34 26 -43 65 -43 40 0 62 18
70 55 12 65 -77 116 -118 68z m80 -48 c5 -36 -21 -59 -49 -44 -37 19 -20 82
20 77 21 -2 27 -9 29 -33z"/>
<path d="M2827 474 c-14 -15 -6 -34 14 -34 14 0 19 5 17 17 -3 18 -20 27 -31
17z"/>
</g>
</svg>
